<svg width="20" height="16" viewBox="0 0 20 16" fill="none" xmlns="http://www.w3.org/2000/svg">
<path d="M17.5 13.8333H19.1667V15.5H0.833374V13.8333H2.50004V1.33333C2.50004 1.11232 2.58784 0.900358 2.74412 0.744078C2.9004 0.587797 3.11236 0.5 3.33337 0.5H11.6667C11.8877 0.5 12.0997 0.587797 12.256 0.744078C12.4122 0.900358 12.5 1.11232 12.5 1.33333V13.8333H15.8334V7.16667H14.1667V5.5H16.6667C16.8877 5.5 17.0997 5.5878 17.256 5.74408C17.4122 5.90036 17.5 6.11232 17.5 6.33333V13.8333ZM4.16671 2.16667V13.8333H10.8334V2.16667H4.16671ZM5.83337 7.16667H9.16671V8.83333H5.83337V7.16667ZM5.83337 3.83333H9.16671V5.5H5.83337V3.83333Z" fill="#003C8A"/>
</svg>
