<svg width="20" height="16" viewBox="0 0 20 16" fill="none" xmlns="http://www.w3.org/2000/svg">
<path d="M17.5002 13.8333H19.1668V15.5H0.833496V13.8333H2.50016V1.33333C2.50016 1.11232 2.58796 0.900358 2.74424 0.744078C2.90052 0.587797 3.11248 0.5 3.3335 0.5H11.6668C11.8878 0.5 12.0998 0.587797 12.2561 0.744078C12.4124 0.900358 12.5002 1.11232 12.5002 1.33333V13.8333H15.8335V7.16667H14.1668V5.5H16.6668C16.8878 5.5 17.0998 5.5878 17.2561 5.74408C17.4124 5.90036 17.5002 6.11232 17.5002 6.33333V13.8333ZM4.16683 2.16667V13.8333H10.8335V2.16667H4.16683ZM5.8335 7.16667H9.16683V8.83333H5.8335V7.16667ZM5.8335 3.83333H9.16683V5.5H5.8335V3.83333Z" fill="#CACCCF"/>
</svg>
