<svg width="19" height="19" viewBox="0 0 19 19" fill="none" xmlns="http://www.w3.org/2000/svg">
<path d="M3.33336 4.34498L0.630859 1.64331L1.81003 0.464142L4.51169 3.16664H17.2134C17.3433 3.16663 17.4713 3.19699 17.5874 3.25528C17.7035 3.31358 17.8043 3.3982 17.8819 3.50239C17.9594 3.60658 18.0116 3.72746 18.0341 3.85538C18.0566 3.9833 18.049 4.11472 18.0117 4.23914L16.0117 10.9058C15.9602 11.0775 15.8548 11.2281 15.711 11.3351C15.5671 11.4422 15.3926 11.5 15.2134 11.5H5.00003V13.1666H14.1667V14.8333H4.16669C3.94568 14.8333 3.73372 14.7455 3.57744 14.5892C3.42116 14.433 3.33336 14.221 3.33336 14V4.34498ZM5.00003 4.83331V9.83331H14.5934L16.0934 4.83331H5.00003ZM4.58336 18.1666C4.25184 18.1666 3.9339 18.0349 3.69948 17.8005C3.46506 17.5661 3.33336 17.2482 3.33336 16.9166C3.33336 16.5851 3.46506 16.2672 3.69948 16.0328C3.9339 15.7983 4.25184 15.6666 4.58336 15.6666C4.91488 15.6666 5.23282 15.7983 5.46724 16.0328C5.70166 16.2672 5.83336 16.5851 5.83336 16.9166C5.83336 17.2482 5.70166 17.5661 5.46724 17.8005C5.23282 18.0349 4.91488 18.1666 4.58336 18.1666ZM14.5834 18.1666C14.2518 18.1666 13.9339 18.0349 13.6995 17.8005C13.4651 17.5661 13.3334 17.2482 13.3334 16.9166C13.3334 16.5851 13.4651 16.2672 13.6995 16.0328C13.9339 15.7983 14.2518 15.6666 14.5834 15.6666C14.9149 15.6666 15.2328 15.7983 15.4672 16.0328C15.7017 16.2672 15.8334 16.5851 15.8334 16.9166C15.8334 17.2482 15.7017 17.5661 15.4672 17.8005C15.2328 18.0349 14.9149 18.1666 14.5834 18.1666Z" fill="#003C8A"/>
</svg>
