<svg width="18" height="16" viewBox="0 0 18 16" fill="none" xmlns="http://www.w3.org/2000/svg">
<path d="M1.49996 0.5H16.5C16.721 0.5 16.9329 0.587797 17.0892 0.744078C17.2455 0.900358 17.3333 1.11232 17.3333 1.33333V14.6667C17.3333 14.8877 17.2455 15.0996 17.0892 15.2559C16.9329 15.4122 16.721 15.5 16.5 15.5H1.49996C1.27895 15.5 1.06698 15.4122 0.910704 15.2559C0.754423 15.0996 0.666626 14.8877 0.666626 14.6667V1.33333C0.666626 1.11232 0.754423 0.900358 0.910704 0.744078C1.06698 0.587797 1.27895 0.5 1.49996 0.5ZM15.6666 4.03167L9.05996 9.94833L2.33329 4.01333V13.8333H15.6666V4.03167ZM2.75913 2.16667L9.05079 7.71833L15.2516 2.16667H2.75913Z" fill="#003C8A"/>
</svg>
