<svg width="20" height="20" viewBox="0 0 20 20" fill="none" xmlns="http://www.w3.org/2000/svg">
<path d="M19.0277 14.5156C19.0273 15.7502 18.6053 16.9477 17.8316 17.9097C17.0578 18.8718 15.9787 19.5408 14.7729 19.8059L14.197 18.078C14.7244 17.9911 15.226 17.7883 15.6656 17.4842C16.1052 17.1801 16.4719 16.7823 16.7392 16.3194H14.5138C14.035 16.3194 13.5757 16.1292 13.2371 15.7906C12.8985 15.4519 12.7083 14.9927 12.7083 14.5138V10.9027C12.7083 10.4239 12.8985 9.96461 13.2371 9.626C13.5757 9.2874 14.035 9.09717 14.5138 9.09717H17.1662C16.9459 7.352 16.0963 5.74721 14.7769 4.58389C13.4575 3.42057 11.759 2.7787 9.99995 2.7787C8.24093 2.7787 6.54237 3.42057 5.22296 4.58389C3.90356 5.74721 3.054 7.352 2.8337 9.09717H5.48606C5.96492 9.09717 6.42417 9.2874 6.76278 9.626C7.10139 9.96461 7.29161 10.4239 7.29161 10.9027V14.5138C7.29161 14.9927 7.10139 15.4519 6.76278 15.7906C6.42417 16.1292 5.96492 16.3194 5.48606 16.3194H2.77772C2.29886 16.3194 1.83961 16.1292 1.501 15.7906C1.1624 15.4519 0.972168 14.9927 0.972168 14.5138V9.99995C0.972168 5.0139 5.0139 0.972168 9.99995 0.972168C14.986 0.972168 19.0277 5.0139 19.0277 9.99995V14.5156Z" fill="#737981"/>
</svg>
