<svg width="16" height="8" viewBox="0 0 16 8" fill="none" xmlns="http://www.w3.org/2000/svg">
<path d="M11.2283 4.83335C11.043 5.54855 10.6254 6.18195 10.0411 6.63412C9.45675 7.08629 8.73883 7.33164 8 7.33164C7.26117 7.33164 6.54325 7.08629 5.95895 6.63412C5.37464 6.18195 4.95703 5.54855 4.77167 4.83335H0.5V3.16668H4.77167C4.95703 2.45148 5.37464 1.81808 5.95895 1.36591C6.54325 0.913738 7.26117 0.668396 8 0.668396C8.73883 0.668396 9.45675 0.913738 10.0411 1.36591C10.6254 1.81808 11.043 2.45148 11.2283 3.16668H15.5V4.83335H11.2283ZM8 5.66668C8.44203 5.66668 8.86595 5.49109 9.17851 5.17853C9.49107 4.86597 9.66667 4.44204 9.66667 4.00002C9.66667 3.55799 9.49107 3.13407 9.17851 2.8215C8.86595 2.50894 8.44203 2.33335 8 2.33335C7.55797 2.33335 7.13405 2.50894 6.82149 2.8215C6.50893 3.13407 6.33333 3.55799 6.33333 4.00002C6.33333 4.44204 6.50893 4.86597 6.82149 5.17853C7.13405 5.49109 7.55797 5.66668 8 5.66668Z" fill="#003C8A"/>
</svg>
