<svg width="16" height="19" viewBox="0 0 16 19" fill="none" xmlns="http://www.w3.org/2000/svg">
<path d="M8 16.4167L12.125 12.2917C12.9408 11.4759 13.4963 10.4365 13.7213 9.30491C13.9463 8.17337 13.8308 7.00051 13.3892 5.93465C12.9477 4.86878 12.2 3.95777 11.2408 3.31682C10.2815 2.67587 9.1537 2.33377 8 2.33377C6.8463 2.33377 5.71851 2.67587 4.75924 3.31682C3.79997 3.95777 3.05229 4.86878 2.61076 5.93465C2.16923 7.00051 2.05368 8.17337 2.27871 9.30491C2.50374 10.4365 3.05926 11.4759 3.875 12.2917L8 16.4167ZM8 18.7734L2.69667 13.47C1.64779 12.4211 0.933489 11.0847 0.644107 9.62989C0.354725 8.17504 0.503256 6.66704 1.07092 5.2966C1.63858 3.92616 2.59987 2.75483 3.83324 1.93072C5.0666 1.10661 6.51665 0.666748 8 0.666748C9.48336 0.666748 10.9334 1.10661 12.1668 1.93072C13.4001 2.75483 14.3614 3.92616 14.9291 5.2966C15.4968 6.66704 15.6453 8.17504 15.3559 9.62989C15.0665 11.0847 14.3522 12.4211 13.3033 13.47L8 18.7734ZM8 9.83335C8.44203 9.83335 8.86595 9.65776 9.17851 9.34519C9.49107 9.03263 9.66667 8.60871 9.66667 8.16668C9.66667 7.72466 9.49107 7.30073 9.17851 6.98817C8.86595 6.67561 8.44203 6.50002 8 6.50002C7.55798 6.50002 7.13405 6.67561 6.82149 6.98817C6.50893 7.30073 6.33334 7.72466 6.33334 8.16668C6.33334 8.60871 6.50893 9.03263 6.82149 9.34519C7.13405 9.65776 7.55798 9.83335 8 9.83335ZM8 11.5C7.11595 11.5 6.2681 11.1488 5.64298 10.5237C5.01786 9.89859 4.66667 9.05074 4.66667 8.16668C4.66667 7.28263 5.01786 6.43478 5.64298 5.80966C6.2681 5.18454 7.11595 4.83335 8 4.83335C8.88406 4.83335 9.7319 5.18454 10.357 5.80966C10.9821 6.43478 11.3333 7.28263 11.3333 8.16668C11.3333 9.05074 10.9821 9.89859 10.357 10.5237C9.7319 11.1488 8.88406 11.5 8 11.5Z" fill="#003C8A"/>
</svg>
