<svg width="14" height="19" viewBox="0 0 14 19" fill="none" xmlns="http://www.w3.org/2000/svg">
<path d="M13.6666 18.3335H11.9999V16.6668C11.9999 16.0038 11.7365 15.3679 11.2677 14.8991C10.7988 14.4302 10.163 14.1668 9.49992 14.1668H4.49992C3.83688 14.1668 3.20099 14.4302 2.73215 14.8991C2.26331 15.3679 1.99992 16.0038 1.99992 16.6668V18.3335H0.333252V16.6668C0.333252 15.5618 0.772239 14.502 1.55364 13.7206C2.33504 12.9391 3.39485 12.5002 4.49992 12.5002H9.49992C10.605 12.5002 11.6648 12.9391 12.4462 13.7206C13.2276 14.502 13.6666 15.5618 13.6666 16.6668V18.3335ZM6.99992 10.8335C6.34331 10.8335 5.69313 10.7042 5.0865 10.4529C4.47987 10.2016 3.92868 9.83332 3.46438 9.36903C3.00009 8.90474 2.63179 8.35354 2.38052 7.74691C2.12925 7.14029 1.99992 6.49011 1.99992 5.8335C1.99992 5.17689 2.12925 4.52671 2.38052 3.92008C2.63179 3.31345 3.00009 2.76226 3.46438 2.29796C3.92868 1.83367 4.47987 1.46537 5.0865 1.2141C5.69313 0.962825 6.34331 0.833496 6.99992 0.833496C8.326 0.833496 9.59777 1.36028 10.5355 2.29796C11.4731 3.23564 11.9999 4.50741 11.9999 5.8335C11.9999 7.15958 11.4731 8.43135 10.5355 9.36903C9.59777 10.3067 8.326 10.8335 6.99992 10.8335ZM6.99992 9.16683C7.88397 9.16683 8.73182 8.81564 9.35694 8.19052C9.98206 7.5654 10.3333 6.71755 10.3333 5.8335C10.3333 4.94944 9.98206 4.10159 9.35694 3.47647C8.73182 2.85135 7.88397 2.50016 6.99992 2.50016C6.11586 2.50016 5.26802 2.85135 4.6429 3.47647C4.01777 4.10159 3.66658 4.94944 3.66658 5.8335C3.66658 6.71755 4.01777 7.5654 4.6429 8.19052C5.26802 8.81564 6.11586 9.16683 6.99992 9.16683Z" fill="#CACCCF"/>
</svg>
